Coordinates
version=1
nRows=16
nColumns=36
inDegrees=yes

Units are S.I. units (second, meters, Newtons, ...)
If the header above contains a line with 'inDegrees', this indicates whether rotational values are in degrees (yes) or radians (no).

endheader
time	pelvis_tilt	pelvis_list	pelvis_rotation	pelvis_tx	pelvis_ty	pelvis_tz	hip_flexion_r	hip_adduction_r	hip_rotation_r	knee_angle_r	knee_angle_r_beta	ankle_angle_r	subtalar_angle_r	mtp_angle_r	hip_flexion_l	hip_adduction_l	hip_rotation_l	knee_angle_l	knee_angle_l_beta	ankle_angle_l	subtalar_angle_l	mtp_angle_l	lumbar_extension	lumbar_bending	lumbar_rotation	arm_flex_r	arm_add_r	arm_rot_r	elbow_flex_r	pro_sup_r	arm_flex_l	arm_add_l	arm_rot_l	elbow_flex_l	pro_sup_l
      1.35000000	     -1.40575073	     -1.23066993	      7.24356575	      0.23254664	      1.34351676	      0.23768069	     -2.63235983	     -1.85324905	     -5.24072080	     24.42998899	      0.42638374	     -5.05207885	    -14.30099826	     -7.50000003	      1.52435254	     -5.18623014	     -4.79562444	     32.28483380	      0.56347665	      4.49082550	     -7.18602202	     -7.50000003	    -10.52901089	     -0.61051609	     -0.98006875	     50.86588484	      3.67601729	     62.58425718	    123.80905336	     90.78790488	     56.90014858	     -0.31458616	     62.38233264	    118.22698630	     96.54363338
      1.36666670	     -1.74556856	     -1.27274461	      6.73945084	      0.24275260	      1.33993409	      0.24056895	      0.17969318	     -2.23454059	     -5.27504278	     28.10806060	      0.49057820	     -6.30415018	    -15.93868930	     -7.50000001	      3.53013971	     -5.39719135	     -4.82619987	     34.15064911	      0.59604127	      4.25081275	     -6.68302041	     -7.50000001	    -10.47674657	     -0.66018262	     -1.20793471	     52.07620347	      4.02809892	     62.07141730	    122.40416924	     89.93222367	     58.18481540	     -0.71039212	     62.43787193	    118.20943528	     95.94789187
      1.38333330	     -2.02114882	     -1.21318589	      6.29269263	      0.25024431	      1.34087160	      0.23774556	      2.75544028	     -2.60956443	     -4.83758035	     30.86327721	      0.53866581	     -5.90763678	    -16.05540866	     -7.50000000	      6.11134709	     -5.49155722	     -4.68328776	     36.66732280	      0.63996551	      3.74611079	     -6.61283806	     -7.50000000	    -10.66355709	     -0.87300924	     -1.12578306	     53.34715072	      3.88294602	     62.08038448	    121.92056459	     88.70272700	     59.15635078	     -0.86388909	     62.78050832	    117.99773690	     94.56561979
      1.40000000	     -2.05438976	     -0.99460311	      5.58205980	      0.28579149	      1.34370381	      0.22866536	      4.99802634	     -3.34571624	     -4.82016302	     32.98998579	      0.57578387	     -6.07111293	    -15.65152348	     -7.49999999	      7.07931483	     -5.31511430	     -4.88532962	     37.33336942	      0.65159022	      3.32991665	     -5.86335765	     -7.49999999	    -10.53610181	     -1.20647404	     -0.97984053	     52.64811645	      3.79307909	     62.82921465	    122.71178275	     88.13282736	     57.82908514	     -1.66312340	     62.84761289	    117.67488504	     93.91544922
      1.41666670	     -1.84547184	     -1.15727428	      5.41206821	      0.30731122	      1.34677522	      0.23142926	      6.82296230	     -3.41675846	     -4.93165479	     34.21119447	      0.59709798	     -5.97781768	    -15.17514733	     -7.49999998	      7.75662004	     -5.76295147	     -4.88895234	     37.41511203	      0.65301689	      1.98929364	     -5.16932954	     -7.49999998	    -10.52443406	     -1.08801249	     -0.64737095	     50.98736804	      3.64030635	     63.70370867	    123.39696847	     87.81408794	     55.64098805	     -1.74802105	     63.10919643	    117.89491452	     93.49490391
      1.43333330	     -2.05787997	     -1.21455724	      5.35691856	      0.32343880	      1.34008150	      0.23145613	      8.86337538	     -3.61956634	     -4.92173351	     34.81702551	      0.60767173	     -5.45316371	    -13.67200760	     -7.49999998	      8.77977866	     -6.16918029	     -5.26016638	     37.05998167	      0.64681870	      0.23640415	     -4.70064817	     -7.49999998	    -10.13078091	     -1.22508914	     -0.24013465	     49.66488235	      3.78579458	     64.09250648	    122.98753015	     87.58583758	     54.44315870	     -1.99925739	     63.73069587	    118.90154002	     93.15324225
      1.45000000	     -2.42455291	     -1.42294214	      5.48492136	      0.33049405	      1.33308560	      0.22849378	     10.98711869	     -3.62836465	     -5.38035775	     34.39312359	      0.60027325	     -4.52713515	    -11.61906562	     -7.49999997	     11.03572480	     -6.64940643	     -4.96913854	     36.93516017	      0.64464015	     -1.49157014	     -4.40822070	     -7.49999997	    -10.31487007	     -1.02079586	     -0.49419644	     48.89260299	      3.73068538	     64.08646608	    122.19233620	     87.41266499	     54.51544471	     -2.08933955	     64.79764006	    119.86694035	     92.88031286
      1.46666670	     -2.88324699	     -1.39765589	      5.29577050	      0.34074500	      1.32121849	      0.23129776	     13.10454464	     -3.92451304	     -5.85684369	     33.46526965	      0.58407914	     -3.61782061	     -9.45734526	     -7.49999995	     12.79007787	     -6.84188546	     -4.95820338	     35.68205534	      0.62276935	     -2.49430043	     -4.02451664	     -7.49999995	    -10.81571769	     -1.23980537	     -1.18055686	     48.27394831	      4.45548910	     63.78091662	    121.22076262	     91.54716002	     54.72528053	     -2.94545483	     64.63581470	    119.01041531	     97.18300735
      1.48333330	     -3.03374564	     -1.41126254	      4.73934995	      0.36559658	      1.30363283	      0.22542264	     14.25427092	     -4.19346300	     -6.05520254	     31.99434433	      0.55840665	     -3.39402196	     -7.19369153	     -7.49999995	     13.68561211	     -7.13679786	     -5.18212227	     33.20085125	      0.57946417	     -3.05985348	     -3.55914965	     -7.49999995	    -10.88671124	     -1.38419548	     -1.01418388	     47.49864537	      4.63178828	     63.28975121	    122.27044987	     91.32272485	     54.32436377	     -3.03583371	     63.49426648	    118.11887863	     96.83370579
      1.50000000	     -3.25834372	     -1.61141288	      4.65704445	      0.37432316	      1.28873476	      0.22207246	     15.82815219	     -4.17508032	     -6.01527582	     30.51278746	      0.53254861	     -3.91065853	     -6.10265401	     -7.49999994	     14.97148239	     -7.55620314	     -5.51774804	     31.12687248	      0.54326641	     -4.49610508	     -3.74738335	     -7.49999994	    -10.74153476	     -1.26960983	     -0.53759928	     46.63025271	      4.37653117	     62.26859172	    123.14462293	     91.49749387	     54.15388529	     -2.13278136	     63.24908942	    117.71277364	     96.99629033
      1.51666670	     -3.00883119	     -1.70785523	      4.29759898	      0.39240865	      1.27427918	      0.21337152	     16.47863194	     -4.28798975	     -6.05170909	     28.69508333	      0.50082368	     -4.90992344	     -4.90352929	     -7.49999994	     15.54393355	     -7.90480938	     -6.06518439	     29.36244565	      0.51247135	     -6.61533517	     -4.00920007	     -7.49999994	    -11.15296522	     -1.01075675	     -0.24281226	     46.83277792	      3.75070824	     62.55700495	    123.26888193	     91.61401134	     53.72397650	     -1.74619713	     63.73187583	    117.53184667	     97.07913346
      1.53333330	     -3.24482585	     -2.04487292	      4.34916521	      0.40758818	      1.24949889	      0.21344633	     17.35078494	     -4.28883276	     -6.35567339	     27.16221698	      0.47407012	     -5.60333348	     -3.09477421	     -7.49999994	     17.26522985	     -8.32625851	     -5.90435671	     27.62729481	      0.48218726	     -8.38786708	     -5.77578087	     -7.49999994	    -11.19340817	     -0.71679047	      0.45968823	     46.77475473	      2.97277554	     62.76844915	    123.72656308	     91.86211249	     53.81903194	     -0.94969227	     64.98584602	    117.48535689	     97.27027437
      1.55000000	     -3.69375349	     -2.29741192	      4.58721691	      0.40917696	      1.23024604	      0.21360238	     18.72565265	     -4.34361331	     -6.53515475	     25.22232178	      0.44021256	     -6.45533270	     -1.21126508	     -7.49999994	     19.43541427	     -8.63260714	     -5.65605422	     25.46939429	      0.44452479	     -9.85549855	     -6.62138321	     -7.49999994	    -11.46394610	     -0.53804725	      0.99285480	     47.13094066	      1.88652992	     62.71176497	    124.04818543	     92.17050087	     54.14220608	     -0.70789872	     65.57233609	    117.06228843	     97.66609229
      1.56666670	     -3.92823144	     -2.41434150	      4.48934116	      0.41772313	      1.19894874	      0.21732299	     20.17666650	     -4.38480696	     -7.08732422	     22.94535089	      0.40047192	     -8.54209825	      0.12301900	     -7.49999994	     21.21332278	     -9.05151261	     -5.82720459	     23.17514362	      0.40448256	    -12.46253119	     -6.67737629	     -7.49999994	    -12.14339398	     -0.74871353	      1.77328343	     48.26737602	      1.93471690	     61.61713410	    123.95631580	     92.36155513	     54.98574533	     -0.82738596	     65.34826736	    117.56662220	     97.94584320
      1.58333330	     -3.97619980	     -2.40721763	      4.09929442	      0.43605895	      1.16958581	      0.21552824	     21.14216159	     -4.48989741	     -7.47413057	     21.47055341	      0.37473185	     -9.30681106	      1.82792074	     -7.49999994	     22.22221016	     -9.32186736	     -5.69552107	     21.51186624	      0.37545289	    -15.08372343	     -8.85382468	     -7.49999994	    -12.45757660	     -0.90415299	      2.64946029	     47.88529307	      2.41562560	     60.62562188	    122.78300411	     92.21758857	     55.35437917	     -1.11167706	     65.85563608	    117.56016785	     97.87544976
      1.60000000	     -4.05241974	     -2.27977942	      3.59093521	      0.45578598	      1.14478385	      0.20835299	     21.81058484	     -4.89572559	     -8.61592545	     19.21485690	      0.33536252	    -11.10553745	      3.38466087	     -7.49999994	     22.52305609	     -9.49028151	     -5.93895036	     19.06170030	      0.33268943	    -18.20874961	     -9.40187745	     -7.49999994	    -13.48598903	     -1.17797857	      3.38750316	     47.16252407	      1.78648371	     60.69018805	    122.52558151	     92.41971564	     55.02124666	     -1.05249308	     66.76615599	    117.05278367	     98.15838153
